# xmcd CD database file
# Copyright (C) 1995-1998 Ti Kan
#
# Track frame offsets:
#	150
#	15587
#	46155
#
# Disc length: 1418 seconds
#
# Revision: 1
# Processed by: cddbd v1.4b41PL2 Copyright (c) Steve Scherf et al.
# Submitted via: CDex 1.30Release
#
DISCID=17058803
DTITLE=Craig Morgan - Something To Write Home About
DYEAR=2000
DGENRE=Country
TTITLE0=Something To Write Home About
TTITLE1=302 South Maple Avenue
TTITLE2=Data Track
EXTD=YEAR: 2000 ID3G:   2
EXTT0=
EXTT1=
EXTT2=
PLAYORDER=
